<mxfile host="app.diagrams.net" modified="2020-12-02T01:23:58.104Z" agent="5.0 (Macintosh; Intel Mac OS X 11_0_0) AppleWebKit/537.36 (KHTML, like Gecko) Chrome/87.0.4280.67 Safari/537.36" etag="RecFhgZ9yKrLIpMndx9C" version="13.10.5" type="github">
  <diagram id="E5L6DAj57a6wTyMwOT4x" name="Page-1">
    <mxGraphModel dx="926" dy="601" grid="1" gridSize="10" guides="1" tooltips="1" connect="1" arrows="1" fold="1" page="1" pageScale="1" pageWidth="850" pageHeight="1100" math="0" shadow="0">
      <root>
        <mxCell id="0" />
        <mxCell id="1" parent="0" />
        <mxCell id="Up7fnc7lNDCQYgyu80V9-1" value="&lt;meta charset=&quot;utf-8&quot;&gt;&lt;b style=&quot;color: rgb(0, 0, 0); font-family: helvetica; font-size: 12px; font-style: normal; letter-spacing: normal; text-align: center; text-indent: 0px; text-transform: none; word-spacing: 0px; background-color: rgb(248, 249, 250);&quot;&gt;iSantePlus&lt;br&gt;(OpenMRS)&lt;/b&gt;" style="aspect=fixed;pointerEvents=1;shadow=0;dashed=0;html=1;labelPosition=center;verticalLabelPosition=top;verticalAlign=bottom;align=center;shape=mxgraph.mscae.enterprise.application_server2;fillColor=#CC6600;strokeColor=#CC6600;rounded=1;" vertex="1" parent="1">
          <mxGeometry x="210" y="110" width="43" height="50" as="geometry" />
        </mxCell>
        <mxCell id="Up7fnc7lNDCQYgyu80V9-2" value="&lt;meta charset=&quot;utf-8&quot;&gt;&lt;b style=&quot;color: rgb(0, 0, 0); font-family: helvetica; font-size: 12px; font-style: normal; letter-spacing: normal; text-align: center; text-indent: 0px; text-transform: none; word-spacing: 0px;&quot;&gt;iSantePlus&lt;br&gt;(OpenMRS)&lt;/b&gt;" style="aspect=fixed;pointerEvents=1;shadow=0;dashed=0;html=1;labelPosition=center;verticalLabelPosition=top;verticalAlign=bottom;align=center;shape=mxgraph.mscae.enterprise.application_server2;fillColor=#CC6600;strokeColor=#CC6600;rounded=1;labelBackgroundColor=#FFFFFF;" vertex="1" parent="1">
          <mxGeometry x="330" y="100" width="43" height="50" as="geometry" />
        </mxCell>
        <mxCell id="Up7fnc7lNDCQYgyu80V9-3" value="&lt;b&gt;iSantePlus&lt;br&gt;(OpenMRS)&lt;br&gt;&lt;/b&gt;" style="aspect=fixed;pointerEvents=1;shadow=0;dashed=0;html=1;labelPosition=center;verticalLabelPosition=top;verticalAlign=bottom;align=center;shape=mxgraph.mscae.enterprise.application_server2;fillColor=#CC6600;strokeColor=#CC6600;rounded=1;" vertex="1" parent="1">
          <mxGeometry x="450" y="110" width="43" height="50" as="geometry" />
        </mxCell>
        <mxCell id="Up7fnc7lNDCQYgyu80V9-4" value="&lt;font size=&quot;1&quot;&gt;&lt;b style=&quot;font-size: 14px&quot;&gt;OpenHIM&lt;/b&gt;&lt;/font&gt;" style="pointerEvents=1;shadow=0;dashed=0;html=1;strokeColor=none;labelPosition=center;verticalLabelPosition=bottom;verticalAlign=top;align=center;shape=mxgraph.mscae.enterprise.management_console;rounded=1;fillColor=#82B366;" vertex="1" parent="1">
          <mxGeometry x="296.5" y="250" width="110" height="54.4" as="geometry" />
        </mxCell>
        <mxCell id="Up7fnc7lNDCQYgyu80V9-6" value="&lt;font style=&quot;font-size: 14px&quot;&gt;&lt;b&gt;Shared Health Record&lt;br&gt;(SHR)&lt;/b&gt;&lt;br&gt;&lt;/font&gt;" style="aspect=fixed;pointerEvents=1;shadow=0;dashed=0;html=1;labelPosition=center;verticalLabelPosition=bottom;verticalAlign=top;align=center;shape=mxgraph.mscae.enterprise.web_server;rounded=1;strokeColor=none;fillColor=#660066;" vertex="1" parent="1">
          <mxGeometry x="420" y="380" width="54" height="71.05" as="geometry" />
        </mxCell>
        <mxCell id="Up7fnc7lNDCQYgyu80V9-11" style="orthogonalLoop=1;jettySize=auto;html=1;entryX=0.5;entryY=0;entryDx=0;entryDy=0;entryPerimeter=0;rounded=0;strokeWidth=2;fillColor=#dae8fc;startArrow=classic;startFill=1;strokeColor=#1A1A1A;" edge="1" parent="1" source="Up7fnc7lNDCQYgyu80V9-2" target="Up7fnc7lNDCQYgyu80V9-4">
          <mxGeometry relative="1" as="geometry">
            <mxPoint x="263" y="170" as="sourcePoint" />
            <mxPoint x="361.5" y="220" as="targetPoint" />
          </mxGeometry>
        </mxCell>
        <mxCell id="Up7fnc7lNDCQYgyu80V9-12" style="orthogonalLoop=1;jettySize=auto;html=1;entryX=1;entryY=0;entryDx=0;entryDy=0;entryPerimeter=0;rounded=0;strokeWidth=2;fillColor=#dae8fc;startArrow=classic;startFill=1;strokeColor=#1A1A1A;exitX=0;exitY=1;exitDx=0;exitDy=0;exitPerimeter=0;" edge="1" parent="1" source="Up7fnc7lNDCQYgyu80V9-3" target="Up7fnc7lNDCQYgyu80V9-4">
          <mxGeometry relative="1" as="geometry">
            <mxPoint x="361.5" y="160" as="sourcePoint" />
            <mxPoint x="361.5" y="220" as="targetPoint" />
          </mxGeometry>
        </mxCell>
        <mxCell id="Up7fnc7lNDCQYgyu80V9-9" style="orthogonalLoop=1;jettySize=auto;html=1;exitX=1;exitY=1;exitDx=0;exitDy=0;exitPerimeter=0;entryX=0;entryY=0;entryDx=0;entryDy=0;entryPerimeter=0;rounded=0;strokeWidth=2;fillColor=#dae8fc;startArrow=classic;startFill=1;strokeColor=#1A1A1A;" edge="1" parent="1" source="Up7fnc7lNDCQYgyu80V9-1" target="Up7fnc7lNDCQYgyu80V9-4">
          <mxGeometry relative="1" as="geometry" />
        </mxCell>
        <mxCell id="Up7fnc7lNDCQYgyu80V9-13" value="&lt;b style=&quot;font-size: 14px&quot;&gt;Master Patient Index&lt;br&gt;(MPI)&lt;/b&gt;" style="aspect=fixed;pointerEvents=1;shadow=0;dashed=0;html=1;labelPosition=center;verticalLabelPosition=bottom;verticalAlign=top;align=center;shape=mxgraph.mscae.enterprise.web_server;rounded=1;strokeColor=none;fillColor=#007FFF;" vertex="1" parent="1">
          <mxGeometry x="250" y="380" width="54" height="71.05" as="geometry" />
        </mxCell>
        <mxCell id="Up7fnc7lNDCQYgyu80V9-14" style="orthogonalLoop=1;jettySize=auto;html=1;entryX=0;entryY=1;entryDx=0;entryDy=0;entryPerimeter=0;rounded=0;strokeWidth=2;fillColor=#dae8fc;startArrow=classic;startFill=1;strokeColor=#1A1A1A;exitX=0.5;exitY=0;exitDx=0;exitDy=0;exitPerimeter=0;" edge="1" parent="1" source="Up7fnc7lNDCQYgyu80V9-13" target="Up7fnc7lNDCQYgyu80V9-4">
          <mxGeometry relative="1" as="geometry">
            <mxPoint x="330" y="370" as="sourcePoint" />
            <mxPoint x="361.5" y="260" as="targetPoint" />
          </mxGeometry>
        </mxCell>
        <mxCell id="Up7fnc7lNDCQYgyu80V9-15" style="orthogonalLoop=1;jettySize=auto;html=1;exitX=0.02;exitY=0.01;exitDx=0;exitDy=0;exitPerimeter=0;entryX=1;entryY=1;entryDx=0;entryDy=0;entryPerimeter=0;rounded=0;strokeWidth=2;fillColor=#dae8fc;startArrow=classic;startFill=1;strokeColor=#1A1A1A;" edge="1" parent="1" source="Up7fnc7lNDCQYgyu80V9-6" target="Up7fnc7lNDCQYgyu80V9-4">
          <mxGeometry relative="1" as="geometry">
            <mxPoint x="290" y="390" as="sourcePoint" />
            <mxPoint x="361.5" y="314.4" as="targetPoint" />
          </mxGeometry>
        </mxCell>
      </root>
    </mxGraphModel>
  </diagram>
</mxfile>
